<?xml version="1.0" standalone="no"?>
<!DOCTYPE svg PUBLIC "-//W3C//DTD SVG 20010904//EN"
 "http://www.w3.org/TR/2001/REC-SVG-20010904/DTD/svg10.dtd">
<svg version="1.0" xmlns="http://www.w3.org/2000/svg"
 width="600.000000pt" height="600.000000pt" viewBox="0 0 600.000000 600.000000"
 preserveAspectRatio="xMidYMid meet">

<g transform="translate(0.000000,600.000000) scale(0.100000,-0.100000)"
fill="#000000" stroke="none">
<path d="M1650 4073 c0 -44 130 -2023 136 -2071 l5 -42 406 2 406 3 25 60 c13
33 30 74 37 90 64 149 95 225 95 230 0 3 9 27 21 53 11 26 32 74 46 107 14 33
29 67 34 76 4 9 28 68 54 130 25 63 50 123 55 134 5 11 28 65 50 120 23 55 50
118 60 140 l18 40 6 -45 c5 -40 66 -1079 66 -1123 0 -16 23 -17 382 -15 l382
3 34 85 c46 117 89 226 189 485 27 70 31 79 46 115 8 19 40 103 72 185 31 83
68 179 82 215 14 36 29 74 33 85 34 88 65 167 81 202 11 24 19 46 19 49 0 8
197 515 225 579 14 31 45 122 45 130 0 3 -80 5 -178 5 l-177 0 -274 -707
c-151 -390 -277 -711 -280 -715 -4 -4 -23 284 -44 640 -21 356 -41 677 -44
715 l-6 67 -336 0 -337 0 -274 -712 -275 -713 -7 75 c-4 41 -16 334 -28 650
-11 316 -23 603 -26 638 l-6 62 -409 0 -409 0 0 -27z"/>
</g>
</svg>
